<svg xmlns="http://www.w3.org/2000/svg" viewBox="0 0 600 338" preserveAspectRatio="xMidYMid slice" role="img" aria-label="Biomedical AI illustration">
  <defs>
    <linearGradient id="bioai-bg" x1="0" x2="1" y1="0" y2="1">
      <stop offset="0%" stop-color="#112131"/>
      <stop offset="100%" stop-color="#0a1721"/>
    </linearGradient>
    <radialGradient id="bioai-glow" cx="0.52" cy="0.48" r="0.55">
      <stop offset="0%" stop-color="#7fd8ff" stop-opacity="0.22"/>
      <stop offset="100%" stop-color="#7fd8ff" stop-opacity="0"/>
    </radialGradient>
  </defs>
  <rect width="600" height="338" fill="url(#bioai-bg)"/>
  <ellipse cx="310" cy="170" rx="250" ry="124" fill="url(#bioai-glow)"/>
  <g fill="none" stroke="#7fd8ff" stroke-linecap="round" stroke-linejoin="round">
    <path d="M92 122l70 42 68-62 74 74 76-52 92 74" stroke-opacity="0.34" stroke-width="1.5"/>
    <path d="M92 232l70-68 76 62 66-50 78 58 90-36" stroke-opacity="0.26" stroke-width="1.5"/>
  </g>
  <g fill="none" stroke="#7fd8ff" stroke-width="2">
    <circle cx="122" cy="184" r="44" opacity="0.55"/>
    <path d="M86 184h72M122 148v72M96 158c32 22 52 50 54 82M148 158c-32 22-52 50-54 82" opacity="0.45"/>
  </g>
  <g fill="#7fd8ff">
    <circle cx="92" cy="122" r="4"/>
    <circle cx="162" cy="164" r="6"/>
    <circle cx="230" cy="102" r="4"/>
    <circle cx="304" cy="176" r="6"/>
    <circle cx="380" cy="124" r="5"/>
    <circle cx="472" cy="198" r="4"/>
    <circle cx="238" cy="226" r="5"/>
    <circle cx="382" cy="234" r="5"/>
  </g>
  <g fill="#7fd8ff" opacity="0.34">
    <circle cx="162" cy="164" r="12"/>
    <circle cx="304" cy="176" r="13"/>
    <circle cx="380" cy="124" r="10"/>
    <circle cx="238" cy="226" r="10"/>
  </g>
  <g transform="translate(410 82)" fill="none" stroke="#7fd8ff" stroke-linecap="round">
    <rect x="0" y="0" width="118" height="146" rx="14" stroke-opacity="0.5" stroke-width="2"/>
    <path d="M24 44h70M24 74h70M24 104h70" stroke-opacity="0.38" stroke-width="1.5"/>
    <circle cx="24" cy="44" r="4" fill="#7fd8ff" stroke="none"/>
    <circle cx="60" cy="74" r="4" fill="#7fd8ff" stroke="none"/>
    <circle cx="94" cy="104" r="4" fill="#7fd8ff" stroke="none"/>
    <path d="M24 44l36 30 34 30" stroke-opacity="0.55" stroke-width="2"/>
  </g>
  <g fill="none" stroke="#7fd8ff" stroke-opacity="0.22" stroke-width="1">
    <path d="M70 286h120M226 286h70M334 286h180"/>
  </g>
</svg>
