<svg xmlns="http://www.w3.org/2000/svg" viewBox="0 0 600 338" preserveAspectRatio="xMidYMid slice" role="img" aria-label="Functional Encoding Units illustration">
  <defs>
    <linearGradient id="feu-bg" x1="0" x2="1" y1="0" y2="1">
      <stop offset="0%" stop-color="#102031"/>
      <stop offset="100%" stop-color="#0a1822"/>
    </linearGradient>
    <radialGradient id="feu-glow" cx="0.5" cy="0.5" r="0.5">
      <stop offset="0%" stop-color="#7fd8ff" stop-opacity="0.18"/>
      <stop offset="100%" stop-color="#7fd8ff" stop-opacity="0"/>
    </radialGradient>
  </defs>
  <rect width="600" height="338" fill="url(#feu-bg)"/>
  <ellipse cx="300" cy="169" rx="240" ry="120" fill="url(#feu-glow)"/>
  <g stroke="#7fd8ff" stroke-opacity="0.35" stroke-width="1" fill="none">
    <line x1="140" y1="100" x2="220" y2="160"/>
    <line x1="220" y1="160" x2="300" y2="90"/>
    <line x1="300" y1="90" x2="380" y2="170"/>
    <line x1="380" y1="170" x2="460" y2="120"/>
    <line x1="220" y1="160" x2="280" y2="240"/>
    <line x1="280" y1="240" x2="380" y2="170"/>
    <line x1="160" y1="220" x2="280" y2="240"/>
    <line x1="380" y1="170" x2="450" y2="240"/>
    <line x1="300" y1="90" x2="220" y2="160"/>
    <line x1="160" y1="220" x2="220" y2="160"/>
  </g>
  <g fill="#7fd8ff">
    <circle cx="140" cy="100" r="4"/>
    <circle cx="220" cy="160" r="5"/>
    <circle cx="300" cy="90" r="4"/>
    <circle cx="380" cy="170" r="5"/>
    <circle cx="460" cy="120" r="4"/>
    <circle cx="280" cy="240" r="5"/>
    <circle cx="160" cy="220" r="4"/>
    <circle cx="450" cy="240" r="4"/>
  </g>
  <g fill="#7fd8ff" opacity="0.4">
    <circle cx="140" cy="100" r="9"/>
    <circle cx="220" cy="160" r="11"/>
    <circle cx="300" cy="90" r="9"/>
    <circle cx="380" cy="170" r="11"/>
    <circle cx="460" cy="120" r="9"/>
    <circle cx="280" cy="240" r="10"/>
  </g>
</svg>
