<svg xmlns="http://www.w3.org/2000/svg" viewBox="0 0 600 338" preserveAspectRatio="xMidYMid slice" role="img" aria-label="Music mindfulness illustration">
  <defs>
    <linearGradient id="music-bg" x1="0" x2="1" y1="0" y2="1">
      <stop offset="0%" stop-color="#1a2230"/>
      <stop offset="100%" stop-color="#0d1620"/>
    </linearGradient>
  </defs>
  <rect width="600" height="338" fill="url(#music-bg)"/>
  <g fill="#7fd8ff">
    <rect x="60" y="155" width="6" height="28" rx="3"/>
    <rect x="78" y="135" width="6" height="68" rx="3"/>
    <rect x="96" y="120" width="6" height="98" rx="3"/>
    <rect x="114" y="100" width="6" height="138" rx="3"/>
    <rect x="132" y="80" width="6" height="178" rx="3"/>
    <rect x="150" y="60" width="6" height="218" rx="3"/>
    <rect x="168" y="80" width="6" height="178" rx="3"/>
    <rect x="186" y="105" width="6" height="128" rx="3"/>
    <rect x="204" y="130" width="6" height="78" rx="3"/>
    <rect x="222" y="115" width="6" height="108" rx="3"/>
    <rect x="240" y="90" width="6" height="158" rx="3"/>
    <rect x="258" y="70" width="6" height="198" rx="3"/>
    <rect x="276" y="50" width="6" height="238" rx="3"/>
    <rect x="294" y="40" width="6" height="258" rx="3"/>
    <rect x="312" y="55" width="6" height="228" rx="3"/>
    <rect x="330" y="80" width="6" height="178" rx="3"/>
    <rect x="348" y="100" width="6" height="138" rx="3"/>
    <rect x="366" y="125" width="6" height="88" rx="3"/>
    <rect x="384" y="140" width="6" height="58" rx="3"/>
    <rect x="402" y="120" width="6" height="98" rx="3"/>
    <rect x="420" y="105" width="6" height="128" rx="3"/>
    <rect x="438" y="125" width="6" height="88" rx="3"/>
    <rect x="456" y="140" width="6" height="58" rx="3"/>
    <rect x="474" y="150" width="6" height="38" rx="3"/>
    <rect x="492" y="155" width="6" height="28" rx="3"/>
    <rect x="510" y="160" width="6" height="18" rx="3"/>
    <rect x="528" y="158" width="6" height="22" rx="3"/>
  </g>
</svg>
