<svg xmlns="http://www.w3.org/2000/svg" viewBox="0 0 600 338" preserveAspectRatio="xMidYMid slice" role="img" aria-label="Focused ultrasound illustration">
  <defs>
    <linearGradient id="us-bg" x1="0" x2="1" y1="0" y2="1">
      <stop offset="0%" stop-color="#0f1d2a"/>
      <stop offset="100%" stop-color="#0a1620"/>
    </linearGradient>
    <radialGradient id="us-target" cx="0.5" cy="0.5" r="0.5">
      <stop offset="0%" stop-color="#7fd8ff" stop-opacity="0.45"/>
      <stop offset="100%" stop-color="#7fd8ff" stop-opacity="0"/>
    </radialGradient>
  </defs>
  <rect width="600" height="338" fill="url(#us-bg)"/>
  <g fill="none" stroke="#7fd8ff" stroke-width="1.5" stroke-linecap="round">
    <path d="M 80 169 Q 160 109 240 169" opacity="0.18"/>
    <path d="M 100 169 Q 170 119 240 169" opacity="0.28"/>
    <path d="M 120 169 Q 180 129 240 169" opacity="0.38"/>
    <path d="M 140 169 Q 190 139 240 169" opacity="0.5"/>
    <path d="M 160 169 Q 200 149 240 169" opacity="0.65"/>
  </g>
  <g fill="none" stroke="#7fd8ff" stroke-width="1.5" stroke-linecap="round">
    <path d="M 80 169 Q 160 229 240 169" opacity="0.18"/>
    <path d="M 100 169 Q 170 219 240 169" opacity="0.28"/>
    <path d="M 120 169 Q 180 209 240 169" opacity="0.38"/>
    <path d="M 140 169 Q 190 199 240 169" opacity="0.5"/>
    <path d="M 160 169 Q 200 189 240 169" opacity="0.65"/>
  </g>
  <circle cx="240" cy="169" r="60" fill="url(#us-target)"/>
  <circle cx="240" cy="169" r="6" fill="#7fd8ff"/>
  <g fill="none" stroke="#7fd8ff" stroke-opacity="0.55" stroke-width="2">
    <path d="M 360 110 Q 420 80 470 110 Q 510 90 540 130 Q 555 170 530 200 Q 540 240 490 245 Q 445 270 400 240 Q 360 245 350 210 Q 320 180 340 145 Z"/>
  </g>
  <g fill="#7fd8ff" opacity="0.6">
    <circle cx="400" cy="150" r="3"/>
    <circle cx="440" cy="170" r="3"/>
    <circle cx="470" cy="190" r="3"/>
    <circle cx="420" cy="210" r="3"/>
    <circle cx="385" cy="185" r="3"/>
  </g>
</svg>
